<?xml version="1.0" standalone="no"?>
<!DOCTYPE svg PUBLIC "-//W3C//DTD SVG 20010904//EN"
 "http://www.w3.org/TR/2001/REC-SVG-20010904/DTD/svg10.dtd">
<svg version="1.0" xmlns="http://www.w3.org/2000/svg"
 width="736.000000pt" height="736.000000pt" viewBox="0 0 736.000000 736.000000"
 preserveAspectRatio="xMidYMid meet">
<metadata>
Created by potrace 1.14, written by Peter Selinger 2001-2017
</metadata>
<g transform="translate(0.000000,736.000000) scale(0.100000,-0.100000)"
fill="#000000" stroke="none">
<path d="M1581 6986 c-13 -7 -30 -24 -37 -37 -27 -49 -22 -63 109 -293 32 -54
57 -102 57 -107 0 -5 4 -9 8 -9 4 0 15 -15 23 -32 19 -41 52 -101 59 -108 6
-6 49 -84 64 -117 6 -13 14 -23 19 -23 4 0 7 -9 7 -20 0 -11 4 -20 8 -20 5 0
26 -34 48 -76 46 -89 101 -149 161 -175 39 -17 78 -18 440 -19 1962 -5 2928
-10 2946 -16 26 -8 48 -30 63 -64 15 -33 5 -61 -68 -183 -32 -54 -58 -101 -58
-104 0 -4 -11 -21 -25 -39 -14 -18 -25 -36 -25 -39 0 -4 -27 -52 -60 -107 -33
-54 -60 -101 -60 -105 0 -3 -13 -25 -30 -50 -16 -24 -30 -46 -30 -48 0 -2 -29
-53 -65 -114 -36 -60 -65 -112 -65 -116 0 -3 -5 -11 -10 -18 -6 -7 -158 -264
-337 -572 -179 -308 -334 -573 -344 -590 -11 -16 -22 -37 -26 -45 -4 -8 -41
-73 -83 -145 -42 -71 -105 -179 -140 -240 -35 -60 -70 -121 -79 -135 -9 -14
-21 -34 -26 -45 -6 -11 -38 -64 -70 -119 -32 -54 -63 -117 -70 -140 -25 -82
-2 -174 70 -280 13 -20 22 -36 18 -36 -3 0 1 -8 9 -17 8 -10 27 -40 43 -68 62
-112 79 -142 110 -195 18 -30 42 -72 54 -92 22 -40 28 -50 111 -196 59 -103
88 -132 134 -132 54 0 79 26 150 155 16 27 74 128 131 225 56 96 112 191 122
210 81 141 214 367 223 377 5 7 10 15 10 18 0 6 92 167 100 175 3 3 12 19 20
35 8 17 26 46 39 65 12 19 27 44 32 55 5 11 13 27 19 35 6 8 47 78 91 155 114
196 114 196 135 235 11 19 22 37 25 40 3 3 8 10 10 15 6 15 352 609 359 615 3
3 14 23 25 45 11 22 23 42 27 43 5 2 8 10 8 18 0 8 4 14 10 14 5 0 9 3 8 8 -1
4 5 18 14 32 30 47 161 275 186 324 35 68 38 153 9 221 -12 28 -26 55 -33 62
-6 6 -17 25 -24 42 -7 17 -16 31 -21 31 -5 0 -9 6 -9 14 0 7 -25 55 -55 105
-30 51 -55 96 -55 101 0 6 -4 10 -10 10 -5 0 -10 5 -10 10 0 6 -31 65 -70 131
-38 66 -70 122 -70 125 0 3 -8 18 -18 32 -11 15 -33 52 -49 82 -17 30 -80 142
-142 249 -61 107 -111 197 -111 202 0 4 -3 9 -7 11 -8 3 -46 69 -68 115 -5 13
-13 23 -17 23 -5 0 -8 6 -8 14 0 7 -9 25 -21 40 -11 14 -17 26 -12 26 4 0 3 4
-3 8 -6 4 -30 43 -55 86 -24 43 -51 91 -59 105 -8 14 -35 61 -58 103 -24 43
-47 80 -53 83 -5 4 -7 11 -4 16 4 5 1 9 -4 9 -6 0 -11 6 -11 13 0 17 -67 85
-100 102 -15 8 -40 17 -56 20 -16 4 -780 8 -1699 10 -1372 4 -1674 2 -1694 -9z"/>
<path d="M1255 5444 c-82 -21 -123 -57 -187 -164 -15 -25 -31 -52 -35 -60 -3
-8 -9 -17 -12 -20 -3 -3 -14 -21 -25 -40 -32 -60 -66 -119 -166 -290 -53 -91
-132 -226 -174 -300 -43 -74 -85 -146 -94 -160 -9 -14 -17 -27 -17 -30 0 -3
-13 -24 -28 -47 -15 -24 -27 -45 -27 -47 0 -3 -25 -45 -55 -95 -30 -50 -55
-94 -55 -99 0 -5 -9 -19 -20 -32 -11 -13 -20 -29 -20 -37 0 -7 -4 -13 -10 -13
-5 0 -10 -4 -10 -9 0 -4 -30 -60 -67 -122 -36 -63 -76 -132 -87 -154 -12 -22
-24 -42 -27 -45 -6 -5 -22 -35 -51 -90 -7 -14 -15 -27 -19 -30 -4 -3 -19 -30
-35 -60 -23 -44 -29 -69 -30 -124 -1 -60 3 -76 34 -135 19 -36 43 -78 53 -93
11 -14 19 -29 19 -32 0 -3 27 -51 60 -107 33 -55 60 -104 60 -109 0 -4 7 -13
15 -20 8 -7 15 -21 15 -30 0 -10 4 -20 8 -22 7 -3 28 -37 120 -198 11 -19 35
-62 54 -95 19 -33 44 -76 54 -95 10 -19 22 -36 27 -38 4 -2 7 -8 7 -13 0 -5
31 -62 68 -127 38 -64 71 -124 75 -132 4 -8 16 -28 27 -45 11 -16 23 -37 27
-45 4 -8 29 -53 56 -100 27 -47 59 -103 72 -125 12 -22 48 -85 80 -140 32 -55
69 -120 83 -145 14 -25 28 -49 32 -55 4 -5 21 -35 38 -65 66 -122 156 -275
164 -278 4 -2 8 -12 8 -22 0 -10 4 -21 9 -25 6 -3 29 -40 52 -83 23 -42 57
-101 76 -129 18 -29 30 -53 26 -53 -3 0 1 -8 9 -17 8 -10 26 -38 39 -63 13
-25 29 -48 34 -52 6 -4 6 -8 1 -8 -5 0 -2 -8 6 -17 8 -10 47 -75 87 -145 40
-71 82 -135 94 -143 12 -8 39 -15 60 -15 43 0 80 31 111 92 9 18 25 47 35 63
10 17 28 47 39 67 12 21 91 156 176 301 193 330 196 337 201 400 6 74 -6 107
-87 247 -105 183 -117 203 -128 225 -6 11 -26 47 -46 80 -19 33 -38 68 -41 78
-3 9 -9 17 -14 17 -5 0 -9 4 -9 9 0 5 -48 92 -106 193 -112 194 -135 233 -179
313 -15 28 -31 55 -35 60 -4 6 -19 30 -32 55 -14 25 -34 61 -45 80 -11 19 -53
91 -92 158 -39 68 -71 125 -71 127 0 2 -18 33 -40 69 -22 36 -40 70 -40 75 0
5 -3 11 -7 13 -8 3 -44 66 -67 115 -6 13 -14 23 -18 23 -5 0 -8 4 -8 10 0 5
-13 31 -29 58 -15 26 -40 69 -54 95 -14 25 -86 151 -160 279 -73 128 -145 253
-159 278 -14 25 -62 109 -107 187 -87 149 -101 195 -72 230 41 52 18 50 716
47 358 -2 666 -3 685 -4 19 0 69 0 110 0 41 0 84 0 95 -1 11 0 70 0 130 0 61
0 459 -1 886 -2 l775 -2 60 30 c49 25 67 42 106 100 41 61 67 105 103 176 5
10 13 19 17 19 5 0 8 7 8 15 0 9 5 21 11 28 5 7 81 133 167 281 122 211 156
277 155 303 -1 38 -25 70 -63 85 -16 7 -544 12 -1505 15 -814 2 -1558 5 -1653
6 -103 1 -190 -3 -217 -9z"/>
<path d="M1571 3884 c-35 -15 -60 -58 -54 -97 2 -15 26 -66 53 -114 28 -47 50
-88 50 -91 0 -3 6 -13 14 -21 7 -9 27 -41 44 -72 16 -31 57 -104 91 -162 34
-58 61 -111 61 -116 0 -6 5 -11 10 -11 6 0 10 -7 10 -15 0 -8 4 -15 8 -15 4 0
13 -12 19 -27 7 -16 25 -50 41 -78 40 -68 173 -300 204 -355 65 -115 262 -458
276 -480 9 -14 15 -28 14 -32 -1 -5 2 -8 7 -8 5 0 11 -6 13 -13 3 -14 159
-289 168 -297 3 -3 14 -23 26 -45 11 -22 58 -105 104 -185 46 -80 92 -161 103
-180 10 -19 61 -107 112 -195 51 -88 103 -178 115 -200 124 -221 141 -243 217
-277 l48 -22 1110 -2 1110 -2 56 30 c35 18 68 46 87 71 23 33 200 334 375 637
11 19 28 49 38 65 11 17 22 37 26 45 3 8 18 33 32 55 13 22 38 65 54 95 16 30
36 62 43 71 8 8 14 18 14 21 0 4 27 52 60 108 33 56 60 103 60 106 0 3 69 119
161 270 20 34 40 71 44 83 3 12 11 21 16 21 5 0 8 3 7 8 -1 4 5 18 14 32 13
21 109 187 189 326 35 61 359 616 370 634 5 8 45 77 89 154 83 143 96 188 69
237 -21 40 -47 42 -539 44 -401 2 -482 0 -520 -13 -51 -18 -125 -88 -155 -147
-11 -22 -23 -41 -27 -43 -5 -2 -8 -7 -8 -12 0 -7 -116 -210 -148 -260 -9 -14
-17 -27 -17 -30 0 -3 -23 -42 -50 -88 -28 -46 -58 -97 -68 -115 -10 -18 -73
-126 -140 -240 -175 -299 -187 -320 -194 -339 -3 -10 -9 -18 -14 -18 -5 0 -9
-4 -9 -9 0 -7 -51 -98 -91 -161 -22 -35 -199 -342 -199 -345 0 -2 -23 -40 -50
-85 -28 -45 -50 -84 -50 -86 0 -3 -16 -30 -35 -60 -19 -30 -35 -56 -35 -59 0
-2 -25 -45 -55 -96 -30 -50 -55 -95 -55 -98 0 -4 -7 -16 -15 -26 -13 -17 -214
-359 -303 -515 -74 -130 -104 -157 -160 -141 -17 5 -32 8 -34 5 -5 -5 -68 92
-68 105 0 6 -4 11 -8 11 -5 0 -14 16 -22 35 -8 19 -17 35 -22 35 -4 0 -8 4 -8
9 0 5 -22 48 -50 96 -27 48 -50 91 -50 96 0 5 -4 9 -10 9 -5 0 -10 4 -10 10 0
5 -13 31 -29 58 -15 26 -41 70 -56 98 -15 27 -79 138 -141 246 -63 109 -114
202 -114 208 0 5 -4 10 -9 10 -5 0 -11 8 -14 18 -3 9 -19 40 -35 67 -16 28
-63 109 -104 180 -111 190 -123 211 -178 310 -28 50 -55 97 -60 105 -19 30
-100 171 -100 174 0 2 -37 66 -81 142 -45 77 -94 162 -109 189 -15 28 -75 133
-134 234 -58 102 -106 188 -106 193 0 4 -4 8 -8 8 -4 0 -13 12 -19 28 -7 15
-25 50 -42 77 -17 28 -37 64 -46 81 -28 55 -83 111 -133 135 -47 23 -48 23
-529 24 -365 1 -490 -2 -512 -11z"/>
</g>
</svg>
