<svg width="209.95000000000005" height="47.13973767231018" viewBox="0 0 369.89473684210526 83.05187359421313" xmlns="http://www.w3.org/2000/svg"><defs></defs><g transform="matrix(0.31765870995044304,0,0,0.31765870995044304,-2.0882559067533086,-8.132063095908522)" fill="#00b5ad"><path xmlns="http://www.w3.org/2000/svg" d="M36.2,127.7l128.4,0.4c3.5,0,6.7-1.9,8.5-4.9l17.7-30.4c1.5-2.6-0.4-5.9-3.4-5.9L58.2,86.5c-3.5,0-6.7,1.9-8.5,4.9  L7.9,163.3c-1.7,3-1.8,6.8-0.1,9.8l64.2,112c1.5,2.6,5.3,2.6,6.8,0l17.7-30.4c1.7-3,1.8-6.8,0.1-9.8L32.8,133.6  C31.3,131,33.2,127.7,36.2,127.7z"></path><path xmlns="http://www.w3.org/2000/svg" d="M224.9,73.2l-64.6,110.9c-1.7,3-1.8,6.8-0.1,9.8l17.5,30.5c1.5,2.6,5.3,2.6,6.8,0l65.1-111.7c1.7-3,1.8-6.8,0.1-9.8  l-41.3-72.1c-1.7-3-5-5-8.5-4.9L70.7,25.6c-3,0-4.9,3.3-3.4,5.9L84.7,62c1.7,3,5,5,8.5,4.9l128.4,0.4  C224.6,67.4,226.4,70.7,224.9,73.2z"></path><g xmlns="http://www.w3.org/2000/svg"><path d="M292.6,148.2l-35.2-0.1c-3.5,0-6.7,1.9-8.5,4.9l-64.6,110.9c-1.5,2.6-5.3,2.6-6.8,0l-63.7-111.2c-1.7-3-5-5-8.5-4.9   l-35.2-0.1c-3,0-4.9,3.3-3.4,5.9l64.2,112c1.7,3,5,5,8.5,4.9l83.2,0.2c3.5,0,6.7-1.9,8.5-4.9L296,154.1   C297.5,151.5,295.6,148.3,292.6,148.2z"></path></g></g><g transform="matrix(1.8090257691858127,0,0,1.8090257691858127,105.84931264355144,-5.261089995058235)" fill="#16477c"><path d="M6.12 40 l-2.72 0 l0 -28.8 l2.72 0 l0 14.92 l14.76 -14.92 l3.08 0 l-11.36 11.48 l13.36 17.32 l-3.32 0 l-12 -15.64 l-4.52 4.52 l0 11.12 z M37.8 40.56 c-5.28 -0.08 -9.6 -3.68 -9.6 -10.92 c0 -6.04 3.2 -10.92 9.6 -10.92 c6.48 0 9.6 4.84 9.6 10.92 c0 6.56 -3.8 10.92 -9.6 10.92 z M44.84 29.64 c-0.04 -4.88 -1.96 -8.76 -7.04 -8.76 c-5.04 0 -7.04 4.28 -7.04 8.76 c0 5.16 2.44 8.76 7.04 8.76 c5.04 0 7.04 -4.32 7.04 -8.76 z M54.2 28.84 l0 11.16 l-2.4 0 l0 -20.72 l2.4 0 l0 2.88 c1.92 -2.04 3.8 -3.44 6.68 -3.44 c2.52 0 4.84 0.8 6.32 2.96 c1 1.48 1.04 3.04 1.04 4.76 l0 13.56 l-2.4 0 l0 -13.52 c0 -3.72 -1.52 -5.6 -5.36 -5.6 c-2.96 0 -5 1.92 -5.76 4.04 c-0.48 1.32 -0.52 2.48 -0.52 3.92 z M82.28 40.56 c-5.28 -0.08 -9.6 -3.68 -9.6 -10.92 c0 -6.04 3.2 -10.92 9.6 -10.92 c6.48 0 9.6 4.84 9.6 10.92 c0 6.56 -3.8 10.92 -9.6 10.92 z M89.32 29.64 c-0.04 -4.88 -1.96 -8.76 -7.04 -8.76 c-5.04 0 -7.04 4.28 -7.04 8.76 c0 5.16 2.44 8.76 7.04 8.76 c5.04 0 7.04 -4.32 7.04 -8.76 z M99.24000000000001 40 l-2.72 0 l0 -28.8 l10.52 0 c7.48 0 9.4 3.72 9.4 8.04 c0 6.44 -5.72 8.04 -11.04 8.04 l-6.16 0 l0 12.72 z M99.24000000000001 24.96 l6.24 0 c5.08 0 8.24 -1.04 8.24 -5.92 c0 -3.6 -2.32 -5.52 -7.44 -5.52 l-7.04 0 l0 11.44 z M123.48 40 l-2.4 0 l0 -20.72 l2.4 0 l0 20.72 z M123.60000000000001 14.760000000000002 l-2.64 0 l0 -3.56 l2.64 0 l0 3.56 z M143.07999999999998 40 l-6.28 -8.96 l-6.44 8.96 l-2.92 0 l7.96 -10.72 l-7.32 -10 l2.96 0 l5.72 8.24 l5.88 -8.24 l3.04 0 l-7.48 10 l7.76 10.72 l-2.88 0 z"></path></g></svg>